<!-- Generated by IcoMoon.io -->
<svg version="1.1" xmlns="http://www.w3.org/2000/svg" width="1024" height="1024" viewBox="0 0 1024 1024">
<title></title>
<g id="icomoon-ignore">
</g>
<path fill="#000" d="M510.161 699.079c-15.62 16.447-41.644 17.033-57.988 1.303l-214.256-206.172c-16.194-15.582-16.773-41.314-1.296-57.61 15.62-16.447 41.644-17.032 57.987-1.304l214.257 206.172c16.193 15.582 16.773 41.313 1.296 57.611z"></path>
<path fill="#000" d="M461.373 711.35c-16.571-14.99-19.035-42.024-5.505-60.382l265.961-360.88c13.528-18.359 37.934-21.089 54.5-6.099 16.572 14.99 19.035 42.024 5.507 60.383l-265.961 360.88c-13.53 18.358-37.931 21.089-54.501 6.098z"></path>
</svg>
