<svg width="26" height="27" viewBox="0 0 26 27" fill="none" xmlns="http://www.w3.org/2000/svg">
<path fill-rule="evenodd" clip-rule="evenodd" d="M25.5594 5.05877C25.8148 5.44547 25.7722 5.97098 25.4318 6.31142L13.221 18.5222C13.0958 18.6474 12.9396 18.7369 12.7683 18.7817L7.68277 20.11C7.5169 20.1533 7.34593 20.1525 7.18529 20.1116C7.01451 20.0681 6.85541 19.9794 6.72654 19.8506C6.47644 19.6005 6.37769 19.2365 6.46708 18.8943L7.79543 13.8088C7.83458 13.6589 7.90803 13.5109 8.00963 13.3948L20.2657 1.14532C20.3729 1.03803 20.5022 0.957739 20.6428 0.908817C20.7471 0.872543 20.8576 0.853516 20.9701 0.853516C21.2344 0.853516 21.4878 0.958479 21.6746 1.14532L25.4318 4.90248C25.4804 4.95111 25.523 5.00352 25.5594 5.05877ZM23.3184 5.60695L20.9701 3.25872L9.65496 14.5739L8.82475 17.7523L12.0032 16.9221L23.3184 5.60695Z" fill="white"/>
<path d="M23.1504 20.6598C23.5136 17.5546 23.6292 14.4277 23.4971 11.3087C23.4908 11.1594 23.5469 11.0141 23.6526 10.9084L24.9589 9.6022C25.1194 9.4416 25.3939 9.54356 25.4089 9.77017C25.6545 13.4758 25.5614 17.1983 25.1295 20.8912C24.8153 23.5779 22.6576 25.6833 19.9848 25.982C15.38 26.4967 10.62 26.4967 6.01517 25.982C3.34243 25.6833 1.18474 23.5779 0.870511 20.8912C0.319856 16.1831 0.319856 11.4269 0.870511 6.71879C1.18474 4.03214 3.34244 1.92668 6.01517 1.62796C9.50841 1.23754 13.0909 1.1433 16.6273 1.34522C16.8552 1.35824 16.9591 1.63403 16.7977 1.79545L15.4792 3.11391C15.3747 3.21845 15.2313 3.27459 15.0836 3.2696C12.1261 3.16986 9.14848 3.28271 6.23648 3.60817C4.46963 3.80564 3.05428 5.19991 2.84956 6.95025C2.31689 11.5046 2.31689 16.1054 2.84956 20.6598C3.05428 22.4101 4.46962 23.8044 6.23648 24.0018C10.6943 24.5001 15.3057 24.5001 19.7635 24.0018C21.5304 23.8044 22.9457 22.4101 23.1504 20.6598Z" fill="white"/>
</svg>
