<svg width="17" height="21" viewBox="0 0 17 21" fill="none" xmlns="http://www.w3.org/2000/svg">
<path fill-rule="evenodd" clip-rule="evenodd" d="M8.88147 16.0622C10.3026 15.3251 15.2084 12.4324 15.2084 7.62508C15.2084 3.92017 12.2049 0.916748 8.50002 0.916748C4.79511 0.916748 1.79169 3.92017 1.79169 7.62508C1.79169 12.4324 6.69742 15.3251 8.11857 16.0622C8.3609 16.1879 8.63915 16.1879 8.88147 16.0622ZM8.50007 10.5C10.0879 10.5 11.3751 9.21282 11.3751 7.625C11.3751 6.03718 10.0879 4.75 8.50007 4.75C6.91225 4.75 5.62507 6.03718 5.62507 7.625C5.62507 9.21282 6.91225 10.5 8.50007 10.5Z" fill="#00AF66"/>
<path fill-rule="evenodd" clip-rule="evenodd" d="M13.5401 14.2412C13.8556 13.8162 14.4558 13.7274 14.8808 14.0429C15.5971 14.5746 16.1667 15.3218 16.1667 16.2499C16.1667 17.178 15.5971 17.9252 14.8808 18.4569C14.1561 18.9948 13.1783 19.3993 12.0844 19.67C10.9809 19.9431 9.74598 20.0832 8.50004 20.0832C7.2541 20.0832 6.01923 19.9431 4.91569 19.67C3.82182 19.3993 2.84394 18.9948 2.11925 18.4569C1.40296 17.9252 0.833374 17.178 0.833374 16.2499C0.833374 15.3218 1.40296 14.5746 2.11925 14.0429C2.54423 13.7274 3.14448 13.8162 3.45995 14.2412C3.77542 14.6662 3.68664 15.2664 3.26166 15.5819C2.80039 15.9243 2.75004 16.1687 2.75004 16.2499C2.75004 16.3311 2.80039 16.5755 3.26166 16.9179C3.71453 17.2541 4.43033 17.5754 5.37606 17.8094C6.31211 18.0411 7.39087 18.1666 8.50004 18.1666C9.60922 18.1666 10.688 18.0411 11.624 17.8094C12.5697 17.5754 13.2856 17.2541 13.7384 16.9179C14.1997 16.5755 14.25 16.3311 14.25 16.2499C14.25 16.1687 14.1997 15.9243 13.7384 15.5819C13.3134 15.2664 13.2247 14.6662 13.5401 14.2412Z" fill="#00AF66"/>
</svg>
