<svg width="26" height="28" viewBox="0 0 26 28" fill="none" xmlns="http://www.w3.org/2000/svg">
<path d="M5.59915 1.90723C5.96094 1.49268 5.91818 0.86333 5.50363 0.501535C5.08908 0.13974 4.45973 0.182506 4.09793 0.597054L2.38195 2.56325C1.40858 3.67855 0.858332 5.10058 0.827465 6.58057L0.752174 10.1906C0.740701 10.7407 1.17735 11.1959 1.72745 11.2074C2.27756 11.2189 2.73281 10.7822 2.74428 10.2321L2.81957 6.62212C2.84069 5.60949 3.21717 4.63652 3.88316 3.87343L5.59915 1.90723Z" fill="white"/>
<path fill-rule="evenodd" clip-rule="evenodd" d="M5.34437 8.93129C5.52888 5.98136 7.97518 3.68329 10.9309 3.68329H11.6713V2.68702C11.6713 1.95339 12.266 1.35866 12.9997 1.35866C13.7333 1.35866 14.328 1.95339 14.328 2.68702V3.68329H15.0685C18.0242 3.68329 20.4705 5.98137 20.655 8.93129L20.9485 13.625C21.0605 15.4145 21.6613 17.1391 22.6855 18.6108C23.611 19.9406 22.7871 21.7771 21.1785 21.9702L16.6527 22.5133V23.9408C16.6527 25.9582 15.0172 27.5937 12.9997 27.5937C10.9822 27.5937 9.34669 25.9582 9.34669 23.9408V22.5133L4.82081 21.9702C3.21226 21.7771 2.38838 19.9406 3.31383 18.6108C4.33807 17.1391 4.93887 15.4145 5.0508 13.625L5.34437 8.93129ZM10.9309 5.67583C9.02733 5.67583 7.45185 7.15585 7.33302 9.05567L7.03945 13.7494C6.90476 15.9028 6.1818 17.978 4.94928 19.749C4.88239 19.8451 4.94194 19.9779 5.05821 19.9918L10.0232 20.5876C12.0004 20.8249 13.9989 20.8249 15.9762 20.5876L20.9411 19.9918C21.0574 19.9779 21.1169 19.8451 21.0501 19.749C19.8175 17.978 19.0946 15.9028 18.9599 13.7494L18.6663 9.05567C18.5475 7.15585 16.972 5.67583 15.0685 5.67583H10.9309ZM12.9997 25.6012C12.0826 25.6012 11.3392 24.8578 11.3392 23.9408V22.9445H14.6601V23.9408C14.6601 24.8578 13.9167 25.6012 12.9997 25.6012Z" fill="white"/>
<path d="M20.4957 0.501535C20.0812 0.86333 20.0384 1.49268 20.4002 1.90723L22.1162 3.87343C22.7822 4.63652 23.1587 5.60949 23.1798 6.62212L23.2551 10.2321C23.2666 10.7822 23.7218 11.2189 24.2719 11.2074C24.822 11.1959 25.2587 10.7407 25.2472 10.1906L25.1719 6.58057C25.141 5.10058 24.5908 3.67855 23.6174 2.56325L21.9014 0.597054C21.5396 0.182506 20.9103 0.13974 20.4957 0.501535Z" fill="white"/>
</svg>
