<svg width="22" height="23" viewBox="0 0 22 23" fill="none" xmlns="http://www.w3.org/2000/svg">
<path fill-rule="evenodd" clip-rule="evenodd" d="M5.35433 5.99123C5.35433 2.87329 7.88192 0.345703 10.9999 0.345703C14.1178 0.345703 16.6454 2.87329 16.6454 5.99123C16.6454 9.10916 14.1178 11.6367 10.9999 11.6367C7.88192 11.6367 5.35433 9.10916 5.35433 5.99123ZM10.9999 2.33824C8.98237 2.33824 7.34687 3.97374 7.34687 5.99123C7.34687 8.00871 8.98237 9.64421 10.9999 9.64421C13.0173 9.64421 14.6528 8.00871 14.6528 5.99123C14.6528 3.97374 13.0173 2.33824 10.9999 2.33824Z" fill="white"/>
<path fill-rule="evenodd" clip-rule="evenodd" d="M5.68642 15.6218C4.03575 15.6218 2.69762 16.96 2.69762 18.6106V20.1891C2.69762 20.2131 2.71503 20.2336 2.73875 20.2375C8.20994 21.1307 13.7898 21.1307 19.261 20.2375C19.2847 20.2336 19.3021 20.2131 19.3021 20.1891V18.6106C19.3021 16.96 17.964 15.6218 16.3133 15.6218H15.8605C15.8255 15.6218 15.7907 15.6274 15.7574 15.6382L14.6077 16.0136C12.2634 16.7791 9.73633 16.7791 7.39201 16.0136L6.2423 15.6382C6.20902 15.6274 6.17423 15.6218 6.13922 15.6218H5.68642ZM0.705078 18.6106C0.705078 15.8595 2.9353 13.6293 5.68642 13.6293H6.13922C6.38429 13.6293 6.62782 13.668 6.86079 13.7441L8.0105 14.1195C9.95294 14.7538 12.0468 14.7538 13.9892 14.1195L15.1389 13.7441C15.3719 13.668 15.6154 13.6293 15.8605 13.6293H16.3133C19.0644 13.6293 21.2946 15.8595 21.2946 18.6106V20.1891C21.2946 21.1897 20.5695 22.0428 19.582 22.204C13.8982 23.132 8.10151 23.132 2.41769 22.204C1.43021 22.0428 0.705078 21.1897 0.705078 20.1891V18.6106Z" fill="white"/>
</svg>
