<?xml version="1.0" encoding="utf-8"?>
<!-- Generator: Adobe Illustrator 25.4.1, SVG Export Plug-In . SVG Version: 6.00 Build 0)  -->
<svg version="1.1" id="Слой_1" xmlns="http://www.w3.org/2000/svg" xmlns:xlink="http://www.w3.org/1999/xlink" x="0px" y="0px"
	 viewBox="0 0 451 450" style="enable-background:new 0 0 451 450;" xml:space="preserve">
<style type="text/css">
	.st0{fill:#01AE66;}
</style>
<g>
	<g>
		<path class="st0" d="M162.8,246.3c34,0,68,0,102,0c7.2,0,13.9-1.2,19-6.9c5.7-6.4,7.5-13.6,4.5-21.7c-3.1-8.2-9.1-12.9-17.8-13.8
			c-4.1-0.4-8.3-0.3-12.5-0.3c-66.3,0-132.6,0-199,0c-6.4,0-6-0.1-7.6-6.3c-2.5-9.8-5.4-19.5-8.3-29.2c-8.5-28.5-17-57-25.6-85.4
			c-2.9-9.7-6.1-19.3-8.6-29.1c-2.4-9.5-2.5-19.2,1.6-28.4C17.4,9.6,33.6,2.3,51.2,6.3C62.7,9,72.7,14.9,83.1,20.1
			C165,60.9,246.8,102,328.6,142.9c29.5,14.8,59.1,29.4,88.5,44.2c10.8,5.4,19.7,13.1,24.3,24.6c6.2,15.5,1.1,31.9-13,43.6
			c-8,6.7-17.6,10.6-26.7,15.2C322,310.4,242.4,350.2,162.8,390c-33.2,16.6-66.4,33.3-99.7,49.6c-11.9,5.8-24.4,7.7-37,1.5
			C14.8,435.6,9.3,426,7.8,413.8c-1.3-10.4,1.7-20.1,4.6-29.8c10-33.1,19.8-66.2,29.7-99.3c2.8-9.4,5.7-18.8,8.5-28.2
			c0.4-1.3,0.7-2.6,1-3.9c1.1-6.5,1.1-6.5,7.9-6.5C93.8,246.2,128.3,246.2,162.8,246.3C162.8,246.2,162.8,246.3,162.8,246.3z"/>
	</g>
</g>
</svg>
