<svg width="24" height="26" viewBox="0 0 24 26" fill="none" xmlns="http://www.w3.org/2000/svg">
<path fill-rule="evenodd" clip-rule="evenodd" d="M10.9352 0.555118C11.5972 0.187356 12.4021 0.187357 13.0641 0.555118L22.6282 5.86855C23.324 6.25512 23.7556 6.98853 23.7556 7.78452V18.3328C23.7556 19.1288 23.324 19.8622 22.6282 20.2488L13.0641 25.5622C12.4021 25.93 11.5972 25.93 10.9352 25.5623L1.37101 20.2488C0.675196 19.8622 0.243652 19.1288 0.243652 18.3328V7.78452C0.243652 6.98853 0.675198 6.25512 1.37102 5.86855L10.9352 0.555118ZM12.0964 2.29691C12.0362 2.26348 11.963 2.26348 11.9029 2.29691L2.33868 7.61034C2.27542 7.64548 2.23619 7.71216 2.23619 7.78452V18.3328C2.23619 18.4052 2.27542 18.4719 2.33868 18.507L11.9029 23.8205C11.963 23.8539 12.0362 23.8539 12.0964 23.8205L21.6606 18.507C21.7238 18.4719 21.7631 18.4052 21.7631 18.3328V7.78452C21.7631 7.71216 21.7238 7.64548 21.6606 7.61034L12.0964 2.29691Z" fill="white"/>
<path fill-rule="evenodd" clip-rule="evenodd" d="M5.68992 13.0587C5.68992 9.57393 8.51487 6.74898 11.9996 6.74898C15.4844 6.74898 18.3093 9.57393 18.3093 13.0587C18.3093 16.5434 15.4844 19.3684 11.9996 19.3684C8.51487 19.3684 5.68992 16.5434 5.68992 13.0587ZM11.9996 8.74152C9.61532 8.74152 7.68246 10.6744 7.68246 13.0587C7.68246 15.443 9.61532 17.3758 11.9996 17.3758C14.3839 17.3758 16.3168 15.443 16.3168 13.0587C16.3168 10.6744 14.3839 8.74152 11.9996 8.74152Z" fill="white"/>
</svg>
