<svg width="39" height="39" viewBox="0 0 39 39" fill="none" xmlns="http://www.w3.org/2000/svg">
<circle cx="19.3591" cy="19.3591" r="19.3591" fill="#A58A55"/>
<path d="M27.8472 14.2348C27.3444 13.3355 26.7989 13.1701 25.688 13.1072C24.5784 13.0315 21.7879 13 19.3705 13C16.9484 13 14.1569 13.0315 13.0484 13.106C11.9398 13.1701 11.3931 13.3343 10.8858 14.2348C10.368 15.133 10.1016 16.6801 10.1016 19.4037C10.1016 19.4061 10.1016 19.4072 10.1016 19.4072C10.1016 19.4096 10.1016 19.4107 10.1016 19.4107V19.4131C10.1016 22.1251 10.368 23.6838 10.8858 24.5726C11.3931 25.472 11.9387 25.6351 13.0472 25.7108C14.1569 25.776 16.9484 25.8145 19.3705 25.8145C21.7879 25.8145 24.5784 25.776 25.6892 25.7119C26.8 25.6362 27.3456 25.4731 27.8483 24.5738C28.3707 23.6849 28.6348 22.1262 28.6348 19.4142C28.6348 19.4142 28.6348 19.4107 28.6348 19.4084C28.6348 19.4084 28.6348 19.4061 28.6348 19.4049C28.6348 16.6801 28.3707 15.133 27.8472 14.2348ZM17.0515 22.9021V15.9124L22.8432 19.4072L17.0515 22.9021Z" fill="#242527"/>
</svg>
