<svg width="442" height="143" viewBox="0 0 442 143" fill="none" xmlns="http://www.w3.org/2000/svg">
<path d="M158.838 68.5605H151.718L140.644 54.6679L137.776 58.0298V68.5605H131.992V35.5841H137.776V51.306L150.68 35.5841H157.849L144.451 51.1577L158.838 68.5605ZM166.654 69.1538C165.269 69.1538 163.935 68.9231 162.649 68.4617C161.364 68.0002 160.441 67.4729 159.88 66.8796L161.957 62.1333C163.374 63.3858 164.808 64.0121 166.258 64.0121C167.544 64.0121 168.549 63.7154 169.274 63.1221C170.032 62.4959 170.823 61.3917 171.647 59.8097L159.238 35.5841H165.813L174.91 54.8162L184.007 35.5841H190.583L176.838 62.3805C175.685 64.6218 174.35 66.3193 172.834 67.4729C171.318 68.5935 169.258 69.1538 166.654 69.1538ZM189.59 69.1538V64.0121C191.501 64.0121 192.935 63.2705 193.891 61.7873C194.847 60.2711 195.588 57.1893 196.116 52.542L198.044 35.5841H220.44V68.5605H214.656V40.6764H203.235L201.851 52.9375C201.455 56.3324 200.895 59.134 200.17 61.3423C199.478 63.5506 198.571 65.2151 197.451 66.3357C196.363 67.4234 195.209 68.165 193.99 68.5605C192.803 68.9561 191.337 69.1538 189.59 69.1538ZM227.444 35.5841H233.228V47.8946H241.93C245.259 47.8946 247.879 48.8999 249.791 50.9105C251.735 52.8881 252.708 55.3271 252.708 58.2276C252.708 61.161 251.735 63.6165 249.791 65.5941C247.879 67.5717 245.259 68.5605 241.93 68.5605H227.444V35.5841ZM241.139 52.9869H233.228V63.4682H241.139C242.787 63.4682 244.138 62.9903 245.193 62.0345C246.247 61.0786 246.775 59.8097 246.775 58.2276C246.775 56.6455 246.247 55.3765 245.193 54.4207C244.138 53.4649 242.787 52.9869 241.139 52.9869ZM267.934 68.5605H262.149V40.6764H252.162V35.5841H277.92V40.6764H267.934V68.5605ZM286.778 69.1538C285.393 69.1538 284.058 68.9231 282.773 68.4617C281.487 68.0002 280.565 67.4729 280.004 66.8796L282.081 62.1333C283.498 63.3858 284.932 64.0121 286.382 64.0121C287.667 64.0121 288.673 63.7154 289.398 63.1221C290.156 62.4959 290.947 61.3917 291.771 59.8097L279.362 35.5841H285.937L295.034 54.8162L304.131 35.5841H310.706L296.962 62.3805C295.809 64.6218 294.474 66.3193 292.958 67.4729C291.441 68.5935 289.381 69.1538 286.778 69.1538ZM320.086 68.5605H314.302V35.5841H328.788C332.117 35.5841 334.737 36.5729 336.649 38.5505C338.593 40.5281 339.566 42.9836 339.566 45.917C339.566 48.8175 338.593 51.273 336.649 53.2836C334.737 55.2612 332.117 56.25 328.788 56.25H320.086V68.5605ZM327.997 51.1577C329.645 51.1577 330.996 50.6797 332.051 49.7239C333.105 48.7681 333.633 47.4991 333.633 45.917C333.633 44.3349 333.105 43.066 332.051 42.1101C330.996 41.1543 329.645 40.6764 327.997 40.6764H320.086V51.1577H327.997ZM373.106 68.5605H367.321V54.1735H350.165V68.5605H344.381V35.5841H350.165V49.0812H367.321V35.5841H373.106V68.5605ZM409.773 68.5605H403.198L400.775 62.2322H385.646L383.224 68.5605H376.648L389.602 35.5841H396.82L409.773 68.5605ZM399.143 57.1399L393.211 41.418L387.278 57.1399H399.143ZM418.566 68.5605H411.892L419.95 55.6073C417.775 55.2447 415.929 54.2394 414.413 52.5914C412.897 50.9105 412.139 48.6857 412.139 45.917C412.139 42.8517 413.128 40.3633 415.105 38.4516C417.083 36.5399 419.687 35.5841 422.917 35.5841H437.403V68.5605H431.618V56.25H425.883L418.566 68.5605ZM423.708 51.1577H431.618V40.6764H423.708C422.06 40.6764 420.708 41.1543 419.654 42.1101C418.599 43.066 418.072 44.3349 418.072 45.917C418.072 47.4991 418.599 48.7681 419.654 49.7239C420.708 50.6797 422.06 51.1577 423.708 51.1577ZM131.992 72.5841H154.586V77.6764H137.776V84.8946H146.478C149.807 84.8946 152.427 85.8999 154.339 87.9105C156.283 89.8881 157.256 92.3271 157.256 95.2276C157.256 98.161 156.283 100.617 154.339 102.594C152.427 104.572 149.807 105.561 146.478 105.561H131.992V72.5841ZM145.687 89.9869H137.776V100.468H145.687C147.335 100.468 148.686 99.9903 149.741 99.0345C150.795 98.0786 151.323 96.8097 151.323 95.2276C151.323 93.6455 150.795 92.3765 149.741 91.4207C148.686 90.4649 147.335 89.9869 145.687 89.9869ZM167.658 105.561H162.071V72.5841H167.855V95.4748L184.714 72.5841H190.647V105.561H184.863V82.0271L167.658 105.561ZM203.439 105.561H197.654V72.5841H212.14C215.469 72.5841 218.089 73.5729 220.001 75.5505C221.946 77.5281 222.918 79.9836 222.918 82.917C222.918 85.8175 221.946 88.273 220.001 90.2836C218.089 92.2612 215.469 93.25 212.14 93.25H203.439V105.561ZM211.349 88.1577C212.997 88.1577 214.348 87.6797 215.403 86.7239C216.458 85.7681 216.985 84.4991 216.985 82.917C216.985 81.3349 216.458 80.066 215.403 79.1101C214.348 78.1543 212.997 77.6764 211.349 77.6764H203.439V88.1577H211.349ZM230.964 105.561H223.845L238.232 88.1577L224.834 72.5841H232.003L243.67 86.8228V72.5841H249.455V86.8228L261.123 72.5841H268.292L254.893 88.1577L269.28 105.561H262.161L251.086 91.6679L249.455 93.5961V105.561H243.67V93.5961L242.039 91.6679L230.964 105.561ZM302.782 105.561H296.206L293.784 99.2322H278.655L276.232 105.561H269.657L282.61 72.5841H289.828L302.782 105.561ZM292.152 94.1399L286.219 78.418L280.287 94.1399H292.152Z" fill="#00AF66"/>
<path d="M26.9818 105.066L48.0772 40.6003L94.8115 104.957L26.9818 105.066Z" fill="#00AF66"/>
<path d="M59.5291 40.7545L115.669 40.6642L98.2093 94.0202L59.5291 40.7545Z" stroke="#00AF66" stroke-width="7"/>
</svg>
