<svg width="39" height="39" viewBox="0 0 39 39" fill="none" xmlns="http://www.w3.org/2000/svg">
<circle cx="19.3591" cy="19.3591" r="19.3591" fill="#A58A55"/>
<path d="M29.1723 14.8355C28.4667 15.1468 27.7148 15.3532 26.9309 15.4533C27.7373 14.9691 28.3528 14.2082 28.6422 13.291C27.8903 13.7418 27.0601 14.0603 26.1754 14.238C25.4615 13.4735 24.444 13 23.3339 13C21.1803 13 19.4464 14.758 19.4464 16.9132C19.4464 17.2233 19.4725 17.5215 19.5365 17.8053C16.3025 17.6467 13.4408 16.0879 11.5184 13.7132C11.1828 14.2988 10.9859 14.9691 10.9859 15.6907C10.9859 17.0456 11.6797 18.2466 12.7138 18.9419C12.0888 18.93 11.4757 18.7475 10.9563 18.4601C10.9563 18.472 10.9563 18.4875 10.9563 18.503C10.9563 20.4042 12.3047 21.9833 14.0729 22.3471C13.7563 22.4341 13.4112 22.4759 13.053 22.4759C12.804 22.4759 12.5525 22.4616 12.3165 22.4091C12.8206 23.9584 14.2508 25.0974 15.9514 25.1344C14.6279 26.1756 12.9475 26.8029 11.1282 26.8029C10.8092 26.8029 10.5032 26.7886 10.1973 26.7493C11.9204 27.8668 13.9626 28.5049 16.1649 28.5049C23.3232 28.5049 27.2368 22.5415 27.2368 17.3724C27.2368 17.1994 27.2309 17.0325 27.2226 16.8667C27.9947 16.3157 28.6434 15.6275 29.1723 14.8355Z" fill="#242527"/>
</svg>
