<svg width="39" height="39" viewBox="0 0 39 39" fill="none" xmlns="http://www.w3.org/2000/svg">
<circle cx="19.3591" cy="19.3591" r="19.3591" fill="#A58A55"/>
<path fill-rule="evenodd" clip-rule="evenodd" d="M19.2022 26.306C19.2022 26.306 19.5896 26.2634 19.788 26.0525C19.9696 25.8593 19.9633 25.4947 19.9633 25.4947C19.9633 25.4947 19.9392 23.7922 20.738 23.5408C21.5254 23.2936 22.5363 25.1872 23.6092 25.9154C24.4196 26.4659 25.0347 26.3454 25.0347 26.3454L27.9017 26.306C27.9017 26.306 29.4007 26.2146 28.69 25.048C28.6313 24.9525 28.2754 24.1848 26.559 22.608C24.7608 20.9574 25.0022 21.2244 27.1668 18.3688C28.4853 16.6299 29.0123 15.5683 28.8475 15.1144C28.6911 14.6802 27.7211 14.7955 27.7211 14.7955L24.4941 14.8152C24.4941 14.8152 24.2548 14.783 24.0774 14.8879C23.9041 14.9907 23.7918 15.2307 23.7918 15.2307C23.7918 15.2307 23.2816 16.5759 22.6003 17.7206C21.1632 20.1347 20.589 20.2625 20.3538 20.1129C19.8069 19.7628 19.9434 18.7085 19.9434 17.9595C19.9434 15.6192 20.3024 14.6438 19.2453 14.3914C18.8946 14.3072 18.6364 14.2522 17.7388 14.2428C16.5872 14.2314 15.613 14.247 15.0609 14.514C14.6934 14.6916 14.41 15.0884 14.5832 15.1112C14.7963 15.1393 15.2792 15.24 15.5354 15.5849C15.866 16.0305 15.8545 17.0298 15.8545 17.0298C15.8545 17.0298 16.0445 19.7846 15.4104 20.1264C14.9758 20.3611 14.3796 19.8823 13.0978 17.6915C12.4417 16.5697 11.9462 15.3294 11.9462 15.3294C11.9462 15.3294 11.8507 15.0977 11.6796 14.9731C11.4728 14.8225 11.1841 14.7757 11.1841 14.7757L8.11768 14.7955C8.11768 14.7955 7.65683 14.8079 7.48782 15.0063C7.3377 15.1819 7.47627 15.5465 7.47627 15.5465C7.47627 15.5465 9.8771 21.1049 12.596 23.9064C15.0892 26.4743 17.9194 26.306 17.9194 26.306H19.2022Z" fill="#242527"/>
</svg>
