<svg width="37" height="39" viewBox="0 0 37 39" fill="none" xmlns="http://www.w3.org/2000/svg">
<path fill-rule="evenodd" clip-rule="evenodd" d="M25.3001 3.8125C23.9288 3.8125 22.6137 4.35723 21.6441 5.32687L6.3274 20.6435C4.7323 22.2386 3.83618 24.4021 3.83618 26.6579C3.83618 28.9137 4.7323 31.0771 6.3274 32.6722C7.9225 34.2673 10.0859 35.1634 12.3417 35.1634C14.5976 35.1634 16.761 34.2673 18.3561 32.6722L33.6728 17.3555C34.2585 16.7698 35.2083 16.7698 35.7941 17.3555C36.3799 17.9413 36.3799 18.8911 35.7941 19.4769L20.4774 34.7935C18.3197 36.9512 15.3932 38.1634 12.3417 38.1634C9.29028 38.1634 6.36379 36.9512 4.20608 34.7935C2.04837 32.6358 0.836182 29.7093 0.836182 26.6579C0.836182 23.6064 2.04837 20.6799 4.20608 18.5222L19.5227 3.20555C21.055 1.6733 23.1332 0.8125 25.3001 0.8125C27.467 0.8125 29.5452 1.6733 31.0774 3.20555C32.6096 4.73779 33.4705 6.81596 33.4705 8.98287C33.4705 11.1498 32.6096 13.228 31.0774 14.7602L15.7441 30.0769C15.7439 30.0771 15.7443 30.0767 15.7441 30.0769C14.8374 30.9833 13.6072 31.4931 12.3251 31.4931C11.0427 31.4931 9.81285 30.9836 8.90608 30.0769C7.99931 29.1701 7.48989 27.9402 7.48989 26.6579C7.48989 25.3755 7.99931 24.1457 8.90608 23.2389L23.0567 9.10492C23.6428 8.51948 24.5926 8.52004 25.178 9.10617C25.7635 9.6923 25.7629 10.6421 25.1768 11.2275L11.0274 25.3602C10.6832 25.7044 10.4899 26.1712 10.4899 26.6579C10.4899 27.1446 10.6832 27.6114 11.0274 27.9555C11.3716 28.2997 11.8384 28.4931 12.3251 28.4931C12.8118 28.4931 13.2786 28.2997 13.6227 27.9555L28.9561 12.6389C29.9254 11.6693 30.4704 10.3539 30.4704 8.98287C30.4704 7.61161 29.9257 6.2965 28.9561 5.32687C27.9865 4.35723 26.6713 3.8125 25.3001 3.8125Z" fill="#1D1D1B"/>
</svg>
