<svg width="20" height="26" viewBox="0 0 20 26" fill="none" xmlns="http://www.w3.org/2000/svg">
<path fill-rule="evenodd" clip-rule="evenodd" d="M15.2128 3.31627C11.7682 2.73879 8.23193 2.73879 4.78733 3.31627C4.1391 3.42494 3.62424 3.92298 3.49502 4.56449C2.31932 10.4013 2.25517 16.4074 3.30593 22.268L3.52319 23.4797L8.39896 18.8477C9.29619 17.9954 10.7039 17.9954 11.6011 18.8477L16.4769 23.4797L16.6942 22.268C17.7449 16.4074 17.6808 10.4013 16.5051 4.56449C16.3759 3.92298 15.861 3.42494 15.2128 3.31627ZM4.45789 1.35116C8.12059 0.737115 11.8795 0.737115 15.5422 1.35116C17.0024 1.59595 18.1655 2.71683 18.4584 4.17104C19.6836 10.2535 19.7504 16.5124 18.6554 22.6197L18.3612 24.2606C18.1143 25.6379 16.4352 26.1884 15.4207 25.2246L10.2288 20.2923C10.1006 20.1705 9.8995 20.1705 9.77132 20.2923L4.57939 25.2246C3.56492 26.1884 1.88582 25.6379 1.63888 24.2606L1.34467 22.6196C0.24968 16.5124 0.316529 10.2535 1.54171 4.17104C1.83463 2.71684 2.99774 1.59595 4.45789 1.35116Z" fill="white"/>
</svg>
