<svg width="24" height="20" viewBox="0 0 24 20" fill="none" xmlns="http://www.w3.org/2000/svg">
<path d="M6.68665 6.90214C5.76961 6.90214 5.02621 7.64554 5.02621 8.56258C5.02621 9.47962 5.76961 10.223 6.68665 10.223C7.60369 10.223 8.3471 9.47962 8.3471 8.56258C8.3471 7.64554 7.60369 6.90214 6.68665 6.90214Z" fill="white"/>
<path d="M12.0001 6.90214C11.083 6.90214 10.3396 7.64554 10.3396 8.56258C10.3396 9.47962 11.083 10.223 12.0001 10.223C12.9171 10.223 13.6605 9.47962 13.6605 8.56258C13.6605 7.64554 12.9171 6.90214 12.0001 6.90214Z" fill="white"/>
<path d="M15.6531 8.56258C15.6531 7.64554 16.3965 6.90214 17.3135 6.90214C18.2306 6.90214 18.974 7.64554 18.974 8.56258C18.974 9.47962 18.2306 10.223 17.3135 10.223C16.3965 10.223 15.6531 9.47962 15.6531 8.56258Z" fill="white"/>
<path fill-rule="evenodd" clip-rule="evenodd" d="M17.4473 0.383604C13.8685 0.0784012 10.2709 0.0606891 6.68923 0.330639L6.43255 0.349985C3.01694 0.607418 0.376953 3.45386 0.376953 6.87917V18.1932C0.376953 18.5437 0.561151 18.8684 0.862001 19.0483C1.16285 19.2282 1.53609 19.2367 1.84484 19.0708L7.03977 16.2789C7.28142 16.1491 7.55147 16.0811 7.8258 16.0811H19.7497C21.2535 16.0811 22.5423 15.0059 22.8118 13.5265C23.3582 10.5281 23.4013 7.45959 22.9395 4.447L22.8035 3.55922C22.5557 1.94294 21.2335 0.706486 19.6042 0.567544L17.4473 0.383604ZM6.83899 2.31754C10.3144 2.0556 13.8053 2.07278 17.278 2.36894L19.4349 2.55288C20.1474 2.61363 20.7256 3.15433 20.8339 3.86112L20.97 4.74889C21.3983 7.54281 21.3582 10.3885 20.8516 13.1693C20.7546 13.7017 20.2908 14.0886 19.7497 14.0886H7.8258C7.22228 14.0886 6.62815 14.2381 6.09654 14.5238L2.36949 16.5268V6.87917C2.36949 4.49622 4.2061 2.51598 6.5823 2.33689L6.83899 2.31754Z" fill="white"/>
</svg>
