<svg width="26" height="25" viewBox="0 0 26 25" fill="none" xmlns="http://www.w3.org/2000/svg">
<path fill-rule="evenodd" clip-rule="evenodd" d="M8.92067 2.54815C7.23204 2.35942 5.48404 2.35942 3.79541 2.54815C3.3851 2.59401 3.06151 2.91891 3.01536 3.31351C2.81371 5.03764 2.81371 6.7794 3.01536 8.50353C3.06151 8.89813 3.3851 9.22303 3.79541 9.26889C5.48405 9.45762 7.23204 9.45762 8.92067 9.26889C9.33099 9.22303 9.65457 8.89813 9.70073 8.50353C9.90238 6.7794 9.90238 5.03764 9.70073 3.31351C9.65457 2.91891 9.33099 2.59401 8.92067 2.54815ZM3.57409 0.567939C5.40981 0.36277 7.30627 0.36277 9.14199 0.567939C10.4582 0.715043 11.5241 1.75114 11.6798 3.08204C11.8994 4.95996 11.8994 6.85708 11.6798 8.73499C11.5241 10.0659 10.4582 11.102 9.14199 11.2491C7.30627 11.4543 5.40982 11.4543 3.5741 11.2491C2.25791 11.102 1.19197 10.0659 1.03631 8.73499C0.816672 6.85708 0.816672 4.95996 1.03631 3.08204C1.19197 1.75115 2.2579 0.715043 3.57409 0.567939Z" fill="#1D1D1B"/>
<path fill-rule="evenodd" clip-rule="evenodd" d="M8.92067 15.8317C7.23204 15.643 5.48404 15.643 3.79541 15.8317C3.3851 15.8776 3.06151 16.2025 3.01536 16.5971C2.81371 18.3212 2.81371 20.063 3.01536 21.7871C3.06151 22.1817 3.3851 22.5066 3.79541 22.5525C5.48405 22.7412 7.23204 22.7412 8.92067 22.5525C9.33099 22.5066 9.65457 22.1817 9.70073 21.7871C9.90238 20.063 9.90238 18.3212 9.70073 16.5971C9.65457 16.2025 9.33099 15.8776 8.92067 15.8317ZM3.57409 13.8515C5.40981 13.6464 7.30627 13.6464 9.14199 13.8515C10.4582 13.9986 11.5241 15.0347 11.6798 16.3656C11.8994 18.2435 11.8994 20.1407 11.6798 22.0186C11.5241 23.3495 10.4582 24.3856 9.14199 24.5327C7.30627 24.7378 5.40982 24.7378 3.5741 24.5327C2.25791 24.3856 1.19197 23.3495 1.03631 22.0186C0.816672 20.1407 0.816672 18.2435 1.03631 16.3656C1.19197 15.0347 2.2579 13.9986 3.57409 13.8515Z" fill="#1D1D1B"/>
<path fill-rule="evenodd" clip-rule="evenodd" d="M22.2043 2.54815C20.5156 2.35942 18.7676 2.35942 17.079 2.54815C16.6687 2.59401 16.3451 2.91891 16.2989 3.31351C16.0973 5.03764 16.0973 6.7794 16.2989 8.50353C16.3451 8.89813 16.6687 9.22303 17.079 9.26889C18.7676 9.45762 20.5156 9.45762 22.2043 9.26889C22.6146 9.22303 22.9382 8.89813 22.9843 8.50353C23.186 6.7794 23.186 5.03764 22.9843 3.31351C22.9382 2.91891 22.6146 2.59401 22.2043 2.54815ZM16.8577 0.567939C18.6934 0.36277 20.5899 0.36277 22.4256 0.567939C23.7418 0.715043 24.8077 1.75114 24.9634 3.08204C25.183 4.95996 25.183 6.85708 24.9634 8.73499C24.8077 10.0659 23.7418 11.102 22.4256 11.2491C20.5899 11.4543 18.6934 11.4543 16.8577 11.2491C15.5415 11.102 14.4756 10.0659 14.3199 8.73499C14.1003 6.85708 14.1003 4.95996 14.3199 3.08204C14.4756 1.75115 15.5415 0.715043 16.8577 0.567939Z" fill="#1D1D1B"/>
<path fill-rule="evenodd" clip-rule="evenodd" d="M22.2043 15.8317C20.5156 15.643 18.7676 15.643 17.079 15.8317C16.6687 15.8776 16.3451 16.2025 16.2989 16.5971C16.0973 18.3212 16.0973 20.063 16.2989 21.7871C16.3451 22.1817 16.6687 22.5066 17.079 22.5525C18.7676 22.7412 20.5156 22.7412 22.2043 22.5525C22.6146 22.5066 22.9382 22.1817 22.9843 21.7871C23.186 20.063 23.186 18.3212 22.9843 16.5971C22.9382 16.2025 22.6146 15.8776 22.2043 15.8317ZM16.8577 13.8515C18.6934 13.6464 20.5899 13.6464 22.4256 13.8515C23.7418 13.9986 24.8077 15.0347 24.9634 16.3656C25.183 18.2435 25.183 20.1407 24.9634 22.0186C24.8077 23.3495 23.7418 24.3856 22.4256 24.5327C20.5899 24.7378 18.6934 24.7378 16.8577 24.5327C15.5415 24.3856 14.4756 23.3495 14.3199 22.0186C14.1003 20.1407 14.1003 18.2435 14.3199 16.3656C14.4756 15.0347 15.5415 13.9986 16.8577 13.8515Z" fill="#1D1D1B"/>
</svg>
