<?xml version="1.0" encoding="utf-8"?>
<!-- Generator: Adobe Illustrator 25.4.1, SVG Export Plug-In . SVG Version: 6.00 Build 0)  -->
<svg version="1.1" id="Слой_1" xmlns="http://www.w3.org/2000/svg" xmlns:xlink="http://www.w3.org/1999/xlink" x="0px" y="0px"
	 viewBox="0 0 32 32" style="enable-background:new 0 0 32 32;" xml:space="preserve">
<style type="text/css">
	.st0{fill:#1D1D1B;}
</style>
<g>
	<path class="st0" d="M16,30.8C7.8,30.8,1.2,24.2,1.2,16S7.8,1.2,16,1.2S30.8,7.8,30.8,16S24.2,30.8,16,30.8z M16,4.2
		C9.5,4.2,4.2,9.5,4.2,16S9.5,27.8,16,27.8c6.5,0,11.8-5.3,11.8-11.8S22.5,4.2,16,4.2z"/>
</g>
<g>
	<path class="st0" d="M16,22.8c-4,0-6.4-3.1-6.5-3.3C9,18.9,9.1,18,9.8,17.5c0.7-0.5,1.6-0.4,2.1,0.3c0,0.1,1.6,2.1,4.1,2.1
		c2.5,0,4.1-2.1,4.1-2.1c0.5-0.7,1.4-0.8,2.1-0.3c0.7,0.5,0.8,1.4,0.3,2.1C22.4,19.7,20,22.8,16,22.8z"/>
</g>
<g>
	<path class="st0" d="M12,13.5c-0.8,0-1.5-0.7-1.5-1.5s0.7-1.5,1.5-1.5h0c0.8,0,1.5,0.7,1.5,1.5S12.8,13.5,12,13.5z"/>
</g>
<g>
	<path class="st0" d="M20,13.5c-0.8,0-1.5-0.7-1.5-1.5s0.7-1.5,1.5-1.5h0c0.8,0,1.5,0.7,1.5,1.5S20.8,13.5,20,13.5z"/>
</g>
</svg>
