<svg width="13" height="13" viewBox="0 0 13 13" fill="none" xmlns="http://www.w3.org/2000/svg">
<path fill-rule="evenodd" clip-rule="evenodd" d="M2.80696 8.44672L1.84686 7.90311C1.97733 7.67268 2.16037 7.49143 2.27577 7.37716C2.28717 7.36588 2.2979 7.35525 2.30785 7.34529L7.93655 1.71659L8.71761 2.49765L3.08891 8.12635C2.93661 8.27864 2.86046 8.35479 2.80806 8.44734C2.75566 8.53989 2.72954 8.64436 2.6773 8.85331L2.15815 10.9299C2.08754 11.2124 2.05223 11.3536 2.13054 11.4319C2.20885 11.5102 2.35008 11.4749 2.63256 11.4043L4.70916 10.8852C4.91811 10.8329 5.02259 10.8068 5.11514 10.7544C5.20769 10.702 5.28383 10.6259 5.43613 10.4736L11.0648 4.84487C11.5864 4.32327 11.8472 4.06246 11.8472 3.73838C11.8472 3.4143 11.5864 3.15349 11.0648 2.63189L10.9306 2.49765C10.409 1.97604 10.1482 1.71524 9.8241 1.71524C9.50001 1.71524 9.23921 1.97604 8.71761 2.49765L7.93655 1.71659C7.94881 1.70434 7.96111 1.69202 7.97346 1.67967C8.20153 1.45144 8.44374 1.20905 8.67491 1.03268C8.94407 0.827313 9.32344 0.610664 9.8241 0.610664C10.3248 0.610664 10.7041 0.827314 10.9733 1.03268C11.2045 1.20905 11.4467 1.45144 11.6747 1.67968C11.6871 1.69203 11.6994 1.70434 11.7116 1.71659L11.8459 1.85083C11.8581 1.86309 11.8704 1.87539 11.8828 1.88774C12.111 2.11581 12.3534 2.35802 12.5298 2.58919C12.7352 2.85835 12.9518 3.23772 12.9518 3.73838C12.9518 4.23904 12.7352 4.6184 12.5298 4.88757C12.3534 5.11874 12.111 5.36096 11.8828 5.58903C11.8704 5.60137 11.8581 5.61367 11.8459 5.62592L6.21718 11.2546C6.20723 11.2646 6.1966 11.2753 6.18532 11.2867C6.07105 11.4021 5.8898 11.5851 5.65936 11.7156C5.65935 11.7156 5.65936 11.7156 5.65936 11.7156M5.65936 11.7156C5.42892 11.8461 5.17871 11.9073 5.02096 11.9459C5.00539 11.9498 4.99072 11.9534 4.97706 11.9568L2.90046 12.4759C2.89159 12.4781 2.88204 12.4805 2.87188 12.4831C2.76148 12.511 2.57878 12.557 2.41253 12.5733C2.21732 12.5924 1.7407 12.6042 1.34949 12.213C0.958263 11.8218 0.970073 11.3451 0.989169 11.1499C1.00543 10.9837 1.05152 10.801 1.07937 10.6906C1.08193 10.6804 1.08434 10.6709 1.08656 10.662L1.60571 8.58541C1.60912 8.57175 1.61272 8.55708 1.61653 8.54151C1.65514 8.38377 1.71639 8.13355 1.84686 7.90311L2.80696 8.44672" fill="#00AF66"/>
<path d="M7.86807 2.56482L10.2153 1L12.5625 3.34722L10.9977 5.69445L7.86807 2.56482Z" fill="#00AF66"/>
</svg>
