<svg width="23" height="23" viewBox="0 0 23 23" fill="none" xmlns="http://www.w3.org/2000/svg">
<path fill-rule="evenodd" clip-rule="evenodd" d="M14.4127 15.7705C11.0204 18.4875 6.05468 18.2737 2.90999 15.129C-0.464138 11.7549 -0.464138 6.28431 2.90999 2.91018C6.28412 -0.463955 11.7547 -0.463955 15.1288 2.91018C18.2735 6.05486 18.4873 11.0205 15.7703 14.4129L22.3695 21.0121C22.7445 21.387 22.7445 21.9948 22.3695 22.3697C21.9946 22.7446 21.3868 22.7446 21.0119 22.3697L14.4127 15.7705ZM4.26764 13.7713C1.64331 11.147 1.64331 6.89214 4.26764 4.26782C6.89196 1.6435 11.1468 1.6435 13.7712 4.26782C16.3935 6.89022 16.3955 11.1408 13.7769 13.7656C13.775 13.7675 13.7731 13.7694 13.7711 13.7713C13.7692 13.7732 13.7673 13.7752 13.7654 13.7771C11.1406 16.3957 6.89004 16.3937 4.26764 13.7713Z" fill="#1D1D1B"/>
</svg>
