<svg width="19" height="17" viewBox="0 0 19 17" fill="none" xmlns="http://www.w3.org/2000/svg">
<path fill-rule="evenodd" clip-rule="evenodd" d="M5.3232 9.77657L1.16266 8.13881C0.740102 7.97177 0.736434 7.34259 1.1578 7.17119L18.2328 0.224057C18.5948 0.0763945 18.9683 0.410886 18.8894 0.811807L15.8252 16.3572C15.753 16.7242 15.345 16.8907 15.057 16.6699L10.8741 13.4669C10.62 13.2724 10.2737 13.2828 10.0306 13.4918L7.71147 15.4858C7.44225 15.7179 7.03665 15.5886 6.93361 15.2387L5.3232 9.77657ZM14.8053 3.62286L6.67403 8.90472C6.36238 9.10762 6.21564 9.50452 6.31632 9.87617L7.19548 13.1342C7.2579 13.3651 7.57565 13.3414 7.60591 13.1029L7.8345 11.3162C7.8776 10.9798 8.02977 10.6699 8.26563 10.4383L14.9763 3.85938C15.1018 3.7366 14.9514 3.5282 14.8053 3.62286Z" fill="#1D1D1B"/>
<path d="M6.67384 8.90473L14.8051 3.62287C14.9512 3.52821 15.1016 3.73662 14.9761 3.8594L8.26544 10.4383C8.02958 10.6699 7.8774 10.9798 7.83431 11.3162L7.60571 13.1029C7.57545 13.3415 7.2577 13.3651 7.19528 13.1342L6.31613 9.87618C6.21544 9.50453 6.36219 9.10763 6.67384 8.90473Z" fill="#1D1D1B"/>
</svg>
