<svg width="20" height="12" viewBox="0 0 20 12" fill="none" xmlns="http://www.w3.org/2000/svg">
<path d="M16.4678 7.15374C17.0924 7.78237 17.7517 8.37382 18.312 9.06584C18.5594 9.37337 18.7937 9.69071 18.973 10.0476C19.2269 10.5549 18.9969 11.1132 18.5556 11.1435L15.8123 11.1422C15.1047 11.2028 14.5403 10.9091 14.0657 10.4105C13.6859 10.0117 13.3341 9.58727 12.9689 9.17503C12.8192 9.00653 12.6625 8.84799 12.4753 8.72267C12.1008 8.4721 11.7757 8.54882 11.5617 8.95143C11.3437 9.36093 11.2943 9.81437 11.2729 10.2707C11.2435 10.9366 11.0482 11.1117 10.3993 11.1422C9.01257 11.2096 7.69647 10.9933 6.47386 10.2722C5.39596 9.6365 4.56009 8.73906 3.83256 7.72306C2.41605 5.74469 1.33128 3.57079 0.356332 1.33599C0.136879 0.832481 0.29737 0.562202 0.83632 0.552636C1.73127 0.534715 2.6261 0.53599 3.5221 0.55136C3.88583 0.556845 4.12663 0.771895 4.26708 1.1261C4.75127 2.35333 5.34374 3.52092 6.08742 4.60318C6.28546 4.89132 6.48741 5.17945 6.77498 5.38226C7.09312 5.60681 7.33534 5.53239 7.485 5.16708C7.57997 4.93545 7.62155 4.68596 7.64296 4.43788C7.71386 3.58438 7.7232 2.73234 7.59884 1.88184C7.52249 1.35104 7.23245 1.00742 6.71862 0.90697C6.45641 0.855759 6.49545 0.755185 6.62241 0.600913C6.84291 0.334844 7.0503 0.16922 7.46372 0.16922H10.5641C11.0522 0.268518 11.1606 0.494537 11.2274 1.00078L11.2301 4.5507C11.2247 4.74668 11.325 5.32824 11.6675 5.45796C11.9416 5.55031 12.1222 5.32429 12.2867 5.14514C13.029 4.33303 13.5588 3.37328 14.0321 2.37947C14.2421 1.94249 14.4227 1.48866 14.5978 1.03522C14.7274 0.698744 14.9309 0.533184 15.2986 0.540518L18.2826 0.543261C18.371 0.543261 18.4606 0.5446 18.5463 0.559715C19.0491 0.648043 19.1869 0.871001 19.0316 1.37712C18.7869 2.17118 18.3108 2.83291 17.8453 3.49771C17.3476 4.20746 16.8154 4.89291 16.322 5.60687C15.8686 6.25885 15.9046 6.58748 16.4678 7.15374Z" fill="#1D1D1B"/>
</svg>
