<svg width="20" height="15" viewBox="0 0 20 15" fill="none" xmlns="http://www.w3.org/2000/svg">
<path fill-rule="evenodd" clip-rule="evenodd" d="M18.4737 1.17539C19.0256 1.80783 19.2204 3.23917 19.2204 3.23917C19.2204 3.23917 19.4152 4.9368 19.4152 6.6344V8.19888C19.4152 9.86322 19.2204 11.5609 19.2204 11.5609C19.2204 11.5609 19.0256 12.9922 18.4737 13.6246C17.7944 14.3844 17.0271 14.4517 16.6463 14.4851C16.6267 14.4868 16.6081 14.4885 16.5906 14.4901C13.9608 14.7231 9.99986 14.7231 9.99986 14.7231C9.99986 14.7231 5.09735 14.6898 3.60391 14.5234C3.52455 14.5046 3.42682 14.4906 3.3157 14.4746C2.8358 14.4055 2.10599 14.3004 1.52601 13.6247C0.974108 12.9922 0.77929 11.5609 0.77929 11.5609C0.77929 11.5609 0.584473 9.89656 0.584473 8.19892V6.63444C0.584473 4.9368 0.77929 3.23917 0.77929 3.23917C0.77929 3.23917 0.941595 1.80786 1.52601 1.17539C2.20529 0.415671 2.97265 0.348328 3.35338 0.314915C3.37299 0.313193 3.39159 0.311562 3.40909 0.30993C6.03889 0.110231 9.99986 0.0769348 9.99986 0.0769348C9.99986 0.0769348 13.9608 0.110231 16.5906 0.30993C16.6177 0.312458 16.6475 0.314794 16.6796 0.317317C17.0704 0.348023 17.8137 0.406411 18.4737 1.17539ZM7.72721 11.2613V4.03802L13.8959 7.73288L7.72721 11.2613Z" fill="#1D1D1B"/>
</svg>
